<svg width="1280" height="832" viewBox="0 0 1280 832" fill="none" xmlns="http://www.w3.org/2000/svg">
<g clip-path="url(#clip0_17_17)">
<path d="M1308.45 -254V-32.1779L1235.18 -105.449V-254H1233.84L1234.07 -253.771V-106.571L1160.79 -179.842V-254H1159.68V-179.842L1086.41 -106.571V-254H638.953V-179.842L565.681 -106.571V-254H564.337L491.294 -180.958V-254H490.178V-179.842L416.906 -106.571V-254H-30V-30.2754H191.824L118.552 42.9958H-30V44.3403L-29.7713 44.1116H117.431L44.1589 117.383H-30V118.499H44.1589L117.431 191.77H-30V192.886H117.431L44.1589 266.157H-30V267.273H43.0431L-30 340.321V341.665H117.431L44.1589 414.936H-30V1084.99H416.895V937.565L490.167 1010.84V1084.99H491.283V1010.84L564.554 937.565V1084.77L564.326 1084.99H565.67V936.449L638.942 863.178V1085H1086.4V1010.84L1086.62 1010.61L1086.4 1010.38V937.57L1159.67 1010.84V1085H1160.78V1011.96L1233.83 1085H1235.17V937.57L1308.44 1010.84V1085H1309V414.942H1087.18L1160.45 341.671H1308.99V340.326L1308.77 340.555H1161.56L1234.84 267.284H1308.99V266.168H1234.84L1161.56 192.897H1308.99V191.781H1161.56L1234.84 118.51H1308.99V117.394H1235.95L1308.99 44.3515V43.0069H1161.56L1234.84 -30.2643H1308.99V-254H1308.44H1308.45ZM1160.23 -178.821L1234.06 -104.992V-31.3913H1086.4V-104.992L1160.22 -178.821H1160.23ZM1235.18 -103.876L1307.66 -31.3913H1235.18V-103.876ZM788.515 1010.05L715.243 936.784H862.445L935.717 1010.05H788.515ZM492.075 861.275L565.347 788.004H713.665L786.936 861.275H492.075ZM341.715 1010.05H194.513L267.785 936.784H414.987L341.715 1010.05ZM44.9456 564.508L118.217 491.237V638.438L44.9456 711.709V564.508ZM191.818 416.058L119.333 488.542V416.058H191.818ZM193.726 266.492V118.175L266.998 44.9038V340.884L193.726 414.155V266.955L193.955 266.726L193.726 266.497V266.492ZM414.993 -105.778H267.791L194.519 -179.049H341.721L414.993 -105.778ZM714.128 -179.049H861.33L788.058 -105.778H640.856L714.128 -179.049ZM1085.61 490.45L1158.89 563.722H1011.68L938.412 490.45H1085.61ZM1010.67 564.28L936.839 638.109H863.238V490.445H936.839L1010.67 564.274V564.28ZM1085.29 936.455V1009.27L938.418 862.397H1085.29V935.997L1085.06 936.226L1085.29 936.455ZM788.521 861.275L714.691 787.446L788.521 713.617H862.122V861.281H788.521V861.275ZM713.67 786.888H566.468L639.74 713.617H786.942L713.67 786.888ZM119.015 935.668L45.7434 862.397H340.605L267.333 935.668H119.015ZM192.616 714.404V861.275H45.7434L192.616 714.404ZM640.064 -103.876L712.549 -31.3913H640.064V-103.876ZM936.833 -104.662L1010.1 -31.3913H715.243L788.515 -104.662H936.833ZM1085.28 118.175V266.492L1012.01 339.763V43.7824L1085.28 -29.4888V117.712L1085.06 117.941L1085.28 118.169V118.175ZM789.631 712.496L862.116 640.011V712.496H789.631ZM492.075 712.496L565.347 639.225H640.064H861.33L788.058 712.496H492.075ZM342.507 861.275V788.791L414.993 861.275H342.507ZM415.779 862.391V934.876L343.294 862.391H415.779ZM341.391 861.275H193.726V787.675L267.556 713.846L341.386 787.675V861.275H341.391ZM342.507 118.175L415.779 44.9038V191.775V339.763L342.507 266.492V118.175ZM490.73 -30.0467L490.959 -30.2754H713.665L786.936 42.9958H490.953L417.682 -30.2754H490.496L490.725 -30.0467H490.73ZM937.625 414.15V266.949L1010.9 193.678V340.879L937.625 414.15ZM267.004 712.819L193.732 786.091V491.226L267.004 564.497V712.814V712.819ZM266.217 416.052L193.732 488.537V416.052H266.217ZM193.966 489.881L267.009 416.839V562.924L193.966 489.881ZM416.906 414.936V268.065L490.178 341.336V489.653L416.906 562.924V414.936ZM489.391 42.9902H416.906V-29.4943L489.391 42.9902ZM416.906 44.106H490.507L564.337 117.935L490.507 191.764H416.906V44.1004V44.106ZM936.515 266.486L863.243 339.757V118.169L863.472 117.941L863.243 117.712V44.8983L936.515 118.169V266.486ZM936.515 414.15L863.472 341.107L936.515 268.065V414.15ZM862.127 637.316L788.856 564.045V268.065L861.899 341.107L862.127 341.336V414.936V637.311V637.316ZM565.358 118.499H713.676L786.948 191.77H714.139L713.91 191.541L713.681 191.77H638.964H492.092L565.363 118.499H565.358ZM787.74 414.15L714.468 340.879V193.678L787.74 266.949V414.15ZM565.687 266.949L638.959 193.678V266.486L638.73 266.715L638.959 266.943V415.489V489.647L565.687 562.918V266.938V266.949ZM638.172 192.886L565.687 265.37V192.886H638.172ZM638.959 491.232V638.103H492.086L638.959 491.232ZM640.075 192.886H712.56L640.075 265.37V192.886ZM713.346 193.672V339.757L640.303 266.715L713.346 193.672ZM715.255 192.886H788.063L788.292 193.114L788.521 192.886H862.122V339.757L715.249 192.886H715.255ZM789.642 191.77L862.127 119.285V191.77H789.642ZM788.292 191.541L715.249 118.499H861.335L788.292 191.541ZM564.566 192.886V266.486L490.736 340.315L416.906 266.486V192.886H564.571H564.566ZM491.294 341.336L564.566 268.065V415.266L491.294 488.537V341.336ZM564.566 416.839V564.04L491.294 637.311V490.11L564.566 416.839ZM490.178 637.311L417.135 564.268L490.178 491.226V637.311ZM489.391 638.098H416.906V565.613L489.391 638.098ZM640.075 415.489V268.059L713.346 341.331V489.647L640.075 562.918V415.489ZM714.462 342.446L787.734 415.718V562.918L714.462 489.647V342.446ZM862.127 -30.2866V116.585L715.255 -30.2866H862.127ZM861.341 117.377H714.139L640.867 44.106H788.069L861.341 117.377ZM639.288 44.106L712.56 117.377H565.358L492.086 44.106H639.288ZM640.075 564.503L713.904 490.674L787.734 564.503V638.103H640.069V564.503H640.075ZM788.856 565.619L861.341 638.103H788.856V565.619ZM863.243 342.452L935.728 414.936H863.243V342.452ZM1010.91 192.093L937.636 265.365V118.164L1010.91 44.8927V192.093ZM937.079 117.148L863.249 43.3193V-30.281H1010.91V43.3193L937.084 117.148H937.079ZM415.796 42.2035L343.311 -30.281H415.796V42.2035ZM342.524 -29.4888L415.567 43.5537L342.524 116.596V-29.4888ZM268.136 712.819V565.619L341.408 638.89V786.091L268.136 712.819ZM341.408 637.316L268.136 564.045V416.845L341.408 490.116V637.316ZM268.923 416.052H415.796V562.924L268.923 416.052ZM490.513 639.219L490.741 639.448L490.97 639.219H563.779L416.906 786.091V639.219H490.507H490.513ZM938.429 414.936L1085.3 268.065V414.936H938.429ZM1012.03 42.2035V-30.281H1084.51L1012.03 42.2035ZM713.916 -31.6256L640.873 -104.668H786.959L713.916 -31.6256ZM343.316 -31.3968L415.801 -103.881V-31.3968H343.316ZM341.972 -31.6256L268.929 -104.668H415.015L341.972 -31.6256ZM340.627 -30.281L193.754 116.591V-30.281H340.627ZM341.414 -29.4943V117.706L268.142 190.978V43.7768L341.414 -29.4943ZM268.142 192.556L341.414 119.285V266.486L268.142 339.757V192.556ZM341.972 267.501L415.801 341.331V414.931H268.136V341.331L341.966 267.501H341.972ZM267.026 414.931H194.541L267.026 342.446V414.931ZM341.972 862.609L415.015 935.651H268.929L341.972 862.609ZM342.53 787.201V491.226L415.573 564.268L415.801 564.497V639.213V787.201L415.573 787.43L415.801 787.658V860.472L342.53 787.201ZM417.71 786.872L490.981 713.6H638.183L564.912 786.872H417.71ZM563.796 787.987L490.753 861.03L417.71 787.987H563.796ZM863.26 861.259V714.387L1010.13 861.259H863.26ZM864.047 713.595H1011.25L1084.52 786.866H937.318L864.047 713.595ZM864.047 712.479L937.09 639.437L1010.13 712.479H864.047ZM863.26 711.692V639.208H935.745L863.26 711.692ZM863.26 489.312V416.828L935.745 489.312H863.26ZM1085.28 -180.171H1012.8L1085.28 -252.655V-180.171ZM1085.28 -179.055V-31.3913H1011.68L937.854 -105.22L1011.68 -179.049H1085.28V-179.055ZM936.833 -105.784H789.631L862.903 -179.055H1010.1L936.833 -105.784ZM416.895 -31.3968V-103.881L489.38 -31.3968H416.895ZM192.94 -179.055L266.212 -105.784H119.01L45.7378 -179.055H192.94ZM119.01 -104.668H267.327L340.599 -31.3968H45.7378L119.01 -104.668ZM192.611 416.845V489.658L192.382 489.887L192.611 490.116V712.819L119.339 786.091V490.11L192.611 416.839V416.845ZM118.223 640.011V787.212L44.9512 860.483V713.282L118.223 640.011ZM43.8353 860.483L-29.2133 787.446L43.8297 714.404V860.489L43.8353 860.483ZM117.994 936.22L44.1645 1010.05H-29.4421V862.386H44.1589L117.989 936.215L117.994 936.22ZM119.015 936.778H266.217L192.945 1010.05H45.7378L119.01 936.778H119.015ZM416.901 788.791L489.386 861.275H416.901V788.791ZM640.069 863.178L712.554 935.662H640.069V863.178ZM640.856 862.391H862.122H936.839L1010.11 935.662H714.133L640.861 862.391H640.856ZM864.024 936.778H1011.23L1084.5 1010.05H937.296L864.024 936.778ZM1084.5 1011.17L1011.46 1084.21L938.412 1011.17H1084.5ZM1160.46 861.27L1160.24 861.041L1160.01 861.27H1011.69L938.418 787.999H1234.4L1307.67 861.27H1160.47H1160.46ZM1086.08 786.883L1012.81 713.612H1160.01L1233.28 786.883H1086.08ZM1160.01 712.496H1011.69L938.418 639.225H1233.28L1160.01 712.496ZM938.418 638.109L1011.69 564.838H1160.01L1233.28 638.109H938.412H938.418ZM1161.59 564.838H1307.67L1234.63 637.88L1161.59 564.838ZM1160.47 563.722L1087.2 490.45H1234.4L1307.67 563.722H1160.47ZM937.302 489.335L864.03 416.063H936.844L937.073 416.292L937.302 416.063H1160.01L1233.28 489.335H937.302ZM1011.23 -180.165H715.249L788.515 -253.442H1084.5L1011.23 -180.171L1011.23 -180.165ZM786.936 -253.442L640.064 -106.571V-253.442H786.936ZM638.948 -105.455L638.719 -105.226L638.948 -104.997V-31.3968H492.075L638.948 -178.268V-105.455ZM564.56 -252.655V-105.455L491.288 -32.1835V-179.379L564.56 -252.655ZM490.172 -178.268V-32.1835L417.129 -105.226L490.172 -178.268ZM415.779 -253.442V-106.571L268.906 -253.442H415.779ZM267.327 -253.442L340.599 -180.171H44.622L-28.6554 -253.442H267.322H267.327ZM43.0431 -180.171H-29.4421V-252.655L43.0431 -180.171ZM-29.4421 -179.055H44.1589L117.989 -105.226L44.1589 -31.3968H-29.4421V-179.055ZM192.611 -29.4888V42.9958H120.125L192.611 -29.4888ZM119.01 44.1116H192.611V191.775H119.01L118.781 191.547L45.1799 117.946L119.01 44.1172V44.1116ZM192.611 192.891V265.376L120.125 192.891H192.611ZM118.781 193.12L191.824 266.162H45.7378L118.781 193.12ZM-28.6554 340.555L44.6164 267.284H191.818L118.547 340.555H-28.6554ZM192.611 268.07V414.942H45.7378L192.611 268.07ZM118.223 416.058V489.658L44.3932 563.487L-29.4421 489.658V416.058H118.223ZM-29.4421 491.237L43.8297 564.508V712.825L-29.4421 786.096V491.232V491.237ZM43.0431 861.275H-29.4421V788.791L43.0431 861.275ZM-29.4421 1011.17H43.0431L-29.4421 1083.66V1011.17ZM44.622 1011.17H340.599L267.327 1084.44H-28.6554L44.6164 1011.17H44.622ZM268.906 1084.44L415.779 937.57V1084.44H268.906ZM490.73 1009.82L417.129 936.22L416.901 935.992V862.391H490.502L490.73 862.62L490.959 862.391H564.56V935.992L490.73 1009.82ZM565.676 862.391H638.161L565.676 934.876V862.391ZM640.064 936.778H713.665L787.494 1010.61L713.665 1084.44H640.064V936.773V936.778ZM715.243 1084.44L788.515 1011.17H936.833L1010.1 1084.44H715.238H715.243ZM1012.8 1084.44L1085.28 1011.96V1084.44H1012.8ZM1086.4 862.391H1158.89L1086.4 934.876V862.391ZM1086.63 936.22L1159.67 863.178V1009.26L1086.63 936.22ZM1234.06 1083.65L1160.79 1010.38V863.178L1234.06 936.449V1083.65ZM1308.45 1009.26L1161.57 862.391H1308.45V1009.26ZM1308.45 860.489L1235.96 788.004H1308.45V860.489ZM1234.85 786.888L1161.02 713.059L1234.85 639.23H1308.45V786.894H1234.85V786.888ZM1308.45 638.109H1235.96L1308.45 565.624V638.109ZM1161.57 416.058H1308.45V562.929L1161.57 416.058ZM1086.4 414.15V341.665H1158.88L1086.4 414.15ZM1160 340.549H1086.4V192.886H1160L1160.22 193.114L1233.83 266.715L1160 340.544V340.549ZM1086.4 191.77V119.285L1158.88 191.77H1086.4ZM1160.22 191.541L1087.18 118.499H1233.27L1160.22 191.541ZM1307.66 44.1116L1234.38 117.383H1087.18L1160.45 44.1116H1307.66ZM1086.39 116.596V-30.2754H1233.26L1086.39 116.596Z" fill="url(#paint0_radial_17_17)" fill-opacity="0.25"/>
</g>
<defs>
<radialGradient id="paint0_radial_17_17" cx="0" cy="0" r="1" gradientUnits="userSpaceOnUse" gradientTransform="translate(619.677 415.5) scale(655.645 655.64)">
<stop stop-color="#EEEEEE"/>
<stop offset="1" stop-color="#EEEEEE" stop-opacity="0"/>
</radialGradient>
<clipPath id="clip0_17_17">
<rect width="1280" height="832" fill="white"/>
</clipPath>
</defs>
</svg>
